<svg data-v-fde0c5aa="" xmlns="http://www.w3.org/2000/svg" viewBox="0 0 300 300" class="iconAboveSlogan"><defs data-v-fde0c5aa=""></defs><rect data-v-fde0c5aa="" fill="#41A2FF" x="0" y="0" width="300px" height="300px" class="logo-background-square"></rect><defs data-v-fde0c5aa=""></defs><g data-v-fde0c5aa="" id="0eb6a25e-c5c2-4006-9dcc-5e83cb2a4858" fill="#ffffff" transform="matrix(3.6614560227895514,0,0,3.6614560227895514,18.46218840932128,150.87327344528555)"><path d="M1.99 7.70C1.99 6.63 2.33 5.77 3.01 5.12C3.69 4.48 4.53 4.16 5.53 4.16C6.88 4.16 7.93 4.63 8.68 5.57L8.68 3.74C7.86 3.02 6.81 2.66 5.53 2.66C4.03 2.66 2.80 3.13 1.85 4.06C0.90 4.99 0.42 6.21 0.42 7.70C0.42 9.19 0.90 10.41 1.85 11.34C2.80 12.27 4.03 12.74 5.53 12.74C6.81 12.74 7.86 12.38 8.68 11.66L8.68 9.83C7.93 10.77 6.88 11.24 5.53 11.24C4.53 11.24 3.69 10.92 3.01 10.28C2.33 9.63 1.99 8.77 1.99 7.70ZM9.94 9.38C9.94 10.40 10.28 11.21 10.96 11.82C11.63 12.43 12.47 12.74 13.48 12.74C14.49 12.74 15.33 12.43 16.01 11.82C16.69 11.21 17.02 10.40 17.02 9.38C17.02 8.36 16.69 7.55 16.01 6.94C15.33 6.33 14.49 6.02 13.48 6.02C12.47 6.02 11.63 6.33 10.96 6.94C10.28 7.55 9.94 8.36 9.94 9.38ZM11.42 9.38C11.42 8.75 11.62 8.26 12.00 7.90C12.38 7.53 12.88 7.35 13.48 7.35C14.09 7.35 14.58 7.53 14.97 7.90C15.35 8.26 15.54 8.75 15.54 9.38C15.54 10.01 15.35 10.50 14.97 10.86C14.58 11.23 14.09 11.41 13.48 11.41C12.88 11.41 12.38 11.23 12.00 10.86C11.62 10.50 11.42 10.01 11.42 9.38ZM19.82 7.15L19.82 6.16L18.35 6.16L18.35 12.60L19.82 12.60L19.82 8.96C19.82 8.51 19.99 8.13 20.32 7.82C20.65 7.51 21.03 7.35 21.46 7.35C21.87 7.35 22.18 7.45 22.39 7.64C22.59 7.83 22.69 8.18 22.69 8.68L22.69 12.60L24.16 12.60L24.16 8.54C24.16 7.63 23.97 6.98 23.57 6.59C23.17 6.21 22.61 6.02 21.88 6.02C21.00 6.02 20.31 6.40 19.82 7.15ZM25.77 3.92L25.77 6.16L24.72 6.16L24.72 7.49L25.77 7.49L25.77 12.60L27.24 12.60L27.24 7.49L28.29 7.49L28.29 6.16L27.24 6.16L27.24 3.92ZM33.80 8.69L30.24 8.69C30.31 8.26 30.52 7.92 30.88 7.66C31.24 7.41 31.65 7.28 32.12 7.28C33.11 7.28 33.67 7.75 33.80 8.69ZM30.21 9.73L35.34 9.73C35.35 9.61 35.36 9.45 35.36 9.25C35.36 8.25 35.07 7.45 34.48 6.88C33.89 6.31 33.11 6.02 32.12 6.02C31.11 6.02 30.29 6.33 29.66 6.96C29.03 7.59 28.71 8.40 28.71 9.38C28.71 10.38 29.01 11.19 29.62 11.81C30.22 12.43 31.05 12.74 32.12 12.74C33.53 12.74 34.56 12.24 35.21 11.24L34.10 10.56C33.75 11.13 33.09 11.41 32.12 11.41C31.60 11.41 31.17 11.27 30.83 10.98C30.48 10.69 30.28 10.27 30.21 9.73ZM38.16 7.15L38.16 6.16L36.69 6.16L36.69 12.60L38.16 12.60L38.16 8.96C38.16 8.51 38.33 8.13 38.66 7.82C38.99 7.51 39.37 7.35 39.80 7.35C40.21 7.35 40.52 7.45 40.73 7.64C40.93 7.83 41.03 8.18 41.03 8.68L41.03 12.60L42.50 12.60L42.50 8.54C42.50 7.63 42.31 6.98 41.91 6.59C41.51 6.21 40.95 6.02 40.22 6.02C39.34 6.02 38.65 6.40 38.16 7.15ZM44.11 3.92L44.11 6.16L43.06 6.16L43.06 7.49L44.11 7.49L44.11 12.60L45.58 12.60L45.58 7.49L46.63 7.49L46.63 6.16L45.58 6.16L45.58 3.92ZM47.61 2.80L47.61 12.60L49.15 12.60L49.15 8.82L50.62 8.82C51.59 8.82 52.38 8.54 53.01 7.99C53.64 7.43 53.96 6.71 53.96 5.81C53.96 4.91 53.64 4.19 53.01 3.63C52.38 3.08 51.59 2.80 50.62 2.80ZM49.15 4.20L50.62 4.20C51.18 4.20 51.62 4.34 51.94 4.61C52.26 4.89 52.42 5.29 52.42 5.81C52.42 6.33 52.26 6.73 51.94 7.01C51.62 7.28 51.18 7.42 50.62 7.42L49.15 7.42ZM55.30 8.01C55.94 7.54 56.61 7.31 57.29 7.31C58.19 7.31 58.65 7.56 58.65 8.05L58.65 8.90C58.18 8.65 57.62 8.53 56.98 8.53C56.16 8.53 55.47 8.72 54.92 9.11C54.37 9.51 54.10 10.06 54.10 10.78C54.10 11.43 54.32 11.92 54.78 12.25C55.24 12.58 55.79 12.74 56.45 12.74C56.94 12.74 57.38 12.65 57.77 12.46C58.16 12.27 58.45 12.01 58.65 11.68L58.65 12.60L60.12 12.60L60.12 7.98C60.12 7.32 59.86 6.82 59.35 6.50C58.83 6.18 58.15 6.02 57.29 6.02C56.37 6.02 55.53 6.30 54.75 6.87ZM55.51 10.64C55.51 10.36 55.66 10.12 55.97 9.90C56.28 9.70 56.68 9.59 57.18 9.59C57.71 9.59 58.20 9.67 58.65 9.84L58.65 10.08C58.65 10.65 58.50 11.05 58.20 11.27C57.91 11.49 57.47 11.61 56.87 11.61C55.96 11.61 55.51 11.28 55.51 10.64ZM62.86 9.38C62.86 8.77 63.05 8.29 63.44 7.93C63.83 7.57 64.37 7.39 65.06 7.39C65.50 7.39 65.92 7.51 66.32 7.73C66.73 7.96 67.01 8.24 67.16 8.55L67.16 6.71C66.71 6.25 65.96 6.02 64.92 6.02C63.84 6.02 62.99 6.33 62.34 6.96C61.70 7.58 61.38 8.39 61.38 9.38C61.38 10.37 61.70 11.18 62.34 11.80C62.99 12.43 63.84 12.74 64.92 12.74C65.98 12.74 66.73 12.51 67.16 12.05L67.16 10.21C67.00 10.54 66.73 10.82 66.36 11.04C65.99 11.26 65.55 11.37 65.06 11.37C64.37 11.37 63.83 11.19 63.44 10.83C63.05 10.47 62.86 9.99 62.86 9.38ZM68.91 3.92L68.91 6.16L67.86 6.16L67.86 7.49L68.91 7.49L68.91 12.60L70.38 12.60L70.38 7.49L71.43 7.49L71.43 6.16L70.38 6.16L70.38 3.92Z"></path></g><defs data-v-fde0c5aa=""></defs><g data-v-fde0c5aa="" id="a9720da2-ff9b-480c-aea7-47d73ceb9e5f" stroke="none" fill="#054EA4" transform="matrix(1.7054527778424333,0,0,1.7054527778424333,122.71275555452107,88.0382578892132)"><path d="M32 0H0v32h32zM16 26.086c-5.551 0-10.066-4.516-10.066-10.065 0-5.55 4.516-10.066 10.066-10.066s10.065 4.516 10.065 10.066c.001 5.55-4.515 10.065-10.065 10.065"></path></g><defs data-v-fde0c5aa=""></defs><g data-v-fde0c5aa="" id="550fe155-e51a-4568-9352-cec439ce966c" fill="#ffffff" transform="matrix(0.43121541922292866,0,0,0.43121541922292866,52.32327802876438,207.3391127272725)"><path d="M8.06 7.99C7.42 8.64 6.45 8.99 5.60 8.99C3.18 8.99 2.24 7.29 2.23 5.67C2.21 4.03 3.23 2.27 5.60 2.27C6.45 2.27 7.32 2.56 7.97 3.19L9.20 2.00C8.19 1.01 6.93 0.50 5.60 0.50C2.06 0.50 0.39 3.11 0.41 5.67C0.42 8.22 1.96 10.72 5.60 10.72C7.01 10.72 8.32 10.26 9.32 9.27ZM21.97 0.50C18.58 0.50 16.93 3.09 16.93 5.67C16.93 8.25 18.52 10.72 21.97 10.72C25.41 10.72 26.96 8.19 26.99 5.66C27.02 3.09 25.34 0.50 21.97 0.50ZM21.97 2.18C24.28 2.18 25.20 4.03 25.17 5.68C25.14 7.29 24.28 9.03 21.97 9.03C19.66 9.03 18.79 7.31 18.75 5.70C18.70 4.05 19.66 2.18 21.97 2.18ZM41.79 6.78L36.99 0.70L35.49 0.70L35.49 10.50L37.34 10.50L37.34 3.89L42.49 10.51L42.49 10.50L43.64 10.50L43.64 0.69L41.79 0.69ZM58.77 6.78L53.97 0.70L52.47 0.70L52.47 10.50L54.32 10.50L54.32 3.89L59.47 10.51L59.47 10.50L60.62 10.50L60.62 0.69L58.77 0.69ZM76.62 8.68L71.12 8.68L71.12 6.47L76.43 6.47L76.43 4.75L71.12 4.75L71.12 2.49L76.62 2.49L76.62 0.70L69.29 0.70C69.29 3.96 69.29 7.24 69.29 10.50L76.62 10.50ZM92.43 7.99C91.78 8.64 90.82 8.99 89.96 8.99C87.54 8.99 86.60 7.29 86.59 5.67C86.58 4.03 87.60 2.27 89.96 2.27C90.82 2.27 91.69 2.56 92.33 3.19L93.56 2.00C92.55 1.01 91.29 0.50 89.96 0.50C86.42 0.50 84.76 3.11 84.77 5.67C84.78 8.22 86.32 10.72 89.96 10.72C91.38 10.72 92.68 10.26 93.69 9.27ZM104.12 10.50L105.97 10.50L105.97 2.38L109.07 2.38L109.07 0.70C106.23 0.70 103.84 0.70 101.01 0.70L101.01 2.38L104.12 2.38ZM119.04 10.50L119.04 0.70L117.21 0.70L117.21 10.50ZM134.22 6.78L129.42 0.70L127.92 0.70L127.92 10.50L129.77 10.50L129.77 3.89L134.92 10.51L134.92 10.50L136.07 10.50L136.07 0.69L134.22 0.69ZM153.19 1.92C152.18 0.92 150.86 0.42 149.55 0.42C146.09 0.42 144.37 2.97 144.37 5.73C144.37 8.30 145.87 10.72 149.55 10.72C151.27 10.72 152.49 10.07 153.45 8.96L153.45 4.83L149.25 4.83L149.25 6.48L151.76 6.48L151.76 8.22C150.99 8.83 150.32 9.00 149.55 9.00C147.11 9.00 146.17 7.34 146.17 5.73C146.17 3.71 147.45 2.11 149.55 2.11C150.40 2.11 151.38 2.46 152.04 3.09ZM173.64 10.50L173.64 0.70L171.81 0.70L171.81 10.50ZM188.82 6.78L184.02 0.70L182.52 0.70L182.52 10.50L184.37 10.50L184.37 3.89L189.52 10.51L189.52 10.50L190.67 10.50L190.67 0.69L188.82 0.69ZM201.21 10.50L201.21 6.87L206.12 6.87L206.12 5.17L201.21 5.17L201.21 2.49L206.40 2.49L206.40 0.71L199.36 0.71L199.36 10.50ZM214.68 0.70L214.68 10.50L221.56 10.50L221.56 8.79L216.52 8.79L216.52 0.70ZM236.05 0.71L236.05 6.33C236.05 8.01 235.19 9.03 233.66 9.03C232.13 9.03 231.13 8.09 231.13 6.33L231.13 0.71L229.29 0.71L229.29 6.33C229.29 9.28 231.29 10.71 233.65 10.71C236.11 10.71 237.89 9.23 237.89 6.33L237.89 0.71ZM254.00 8.68L248.50 8.68L248.50 6.47L253.81 6.47L253.81 4.75L248.50 4.75L248.50 2.49L254.00 2.49L254.00 0.70L246.67 0.70C246.67 3.96 246.67 7.24 246.67 10.50L254.00 10.50ZM269.16 6.78L264.36 0.70L262.86 0.70L262.86 10.50L264.71 10.50L264.71 3.89L269.86 10.51L269.86 10.50L271.01 10.50L271.01 0.69L269.16 0.69ZM287.08 7.99C286.44 8.64 285.47 8.99 284.62 8.99C282.20 8.99 281.26 7.29 281.25 5.67C281.23 4.03 282.25 2.27 284.62 2.27C285.47 2.27 286.34 2.56 286.99 3.19L288.22 2.00C287.21 1.01 285.95 0.50 284.62 0.50C281.08 0.50 279.41 3.11 279.43 5.67C279.44 8.22 280.98 10.72 284.62 10.72C286.03 10.72 287.34 10.26 288.34 9.27ZM303.69 8.68L298.19 8.68L298.19 6.47L303.49 6.47L303.49 4.75L298.19 4.75L298.19 2.49L303.69 2.49L303.69 0.70L296.35 0.70C296.35 3.96 296.35 7.24 296.35 10.50L303.69 10.50ZM324.48 10.50L326.33 10.50L326.33 2.38L329.43 2.38L329.43 0.70C326.59 0.70 324.20 0.70 321.37 0.70L321.37 2.38L324.48 2.38ZM342.16 0.50C338.77 0.50 337.12 3.09 337.12 5.67C337.12 8.25 338.72 10.72 342.16 10.72C345.60 10.72 347.16 8.19 347.19 5.66C347.21 3.09 345.53 0.50 342.16 0.50ZM342.16 2.18C344.47 2.18 345.39 4.03 345.37 5.68C345.34 7.29 344.47 9.03 342.16 9.03C339.85 9.03 338.98 7.31 338.94 5.70C338.90 4.05 339.85 2.18 342.16 2.18ZM367.22 10.50L367.22 0.70L365.39 0.70L365.39 10.50ZM384.50 10.51L386.34 10.51L386.34 0.71L384.23 0.71L381.16 4.93L378.10 0.71L375.97 0.71L375.97 10.51L377.82 10.51L377.82 3.39L380.94 7.66L381.30 7.66L384.50 3.40ZM396.93 2.45L399.70 2.45C402.05 2.45 402.07 5.92 399.70 5.92L396.93 5.92ZM399.70 0.69C398.16 0.69 396.62 0.70 395.08 0.70L395.08 10.50L396.93 10.50L396.93 7.62L399.70 7.62C404.50 7.62 404.49 0.69 399.70 0.69ZM419.33 10.50L421.34 10.50L416.95 0.70L414.93 0.70L410.54 10.50L412.54 10.50L413.38 8.65L418.50 8.65ZM417.76 6.93L414.12 6.93L415.94 2.76ZM435.97 7.99C435.33 8.64 434.36 8.99 433.51 8.99C431.09 8.99 430.15 7.29 430.14 5.67C430.12 4.03 431.14 2.27 433.51 2.27C434.36 2.27 435.23 2.56 435.88 3.19L437.11 2.00C436.10 1.01 434.84 0.50 433.51 0.50C429.97 0.50 428.30 3.11 428.32 5.67C428.33 8.22 429.87 10.72 433.51 10.72C434.92 10.72 436.23 10.26 437.23 9.27ZM447.66 10.50L449.51 10.50L449.51 2.38L452.62 2.38L452.62 0.70C449.78 0.70 447.38 0.70 444.56 0.70L444.56 2.38L447.66 2.38Z"></path></g></svg>