<svg data-v-423bf9ae="" xmlns="http://www.w3.org/2000/svg" viewBox="0 0 422.6785873434172 60" class="font"><g data-v-423bf9ae="" id="1d1b558b-5567-4cd7-b6f5-cc5e6555383f" fill="white" transform="matrix(5.952380997433594,0,0,5.952380997433594,-2.500001323331304,-15.833334679326057)"><path d="M1.99 7.70C1.99 6.63 2.33 5.77 3.01 5.12C3.69 4.48 4.53 4.16 5.53 4.16C6.88 4.16 7.93 4.63 8.68 5.57L8.68 3.74C7.86 3.02 6.81 2.66 5.53 2.66C4.03 2.66 2.80 3.13 1.85 4.06C0.90 4.99 0.42 6.21 0.42 7.70C0.42 9.19 0.90 10.41 1.85 11.34C2.80 12.27 4.03 12.74 5.53 12.74C6.81 12.74 7.86 12.38 8.68 11.66L8.68 9.83C7.93 10.77 6.88 11.24 5.53 11.24C4.53 11.24 3.69 10.92 3.01 10.28C2.33 9.63 1.99 8.77 1.99 7.70ZM9.94 9.38C9.94 10.40 10.28 11.21 10.96 11.82C11.63 12.43 12.47 12.74 13.48 12.74C14.49 12.74 15.33 12.43 16.01 11.82C16.69 11.21 17.02 10.40 17.02 9.38C17.02 8.36 16.69 7.55 16.01 6.94C15.33 6.33 14.49 6.02 13.48 6.02C12.47 6.02 11.63 6.33 10.96 6.94C10.28 7.55 9.94 8.36 9.94 9.38ZM11.42 9.38C11.42 8.75 11.62 8.26 12.00 7.90C12.38 7.53 12.88 7.35 13.48 7.35C14.09 7.35 14.58 7.53 14.97 7.90C15.35 8.26 15.54 8.75 15.54 9.38C15.54 10.01 15.35 10.50 14.97 10.86C14.58 11.23 14.09 11.41 13.48 11.41C12.88 11.41 12.38 11.23 12.00 10.86C11.62 10.50 11.42 10.01 11.42 9.38ZM19.82 7.15L19.82 6.16L18.35 6.16L18.35 12.60L19.82 12.60L19.82 8.96C19.82 8.51 19.99 8.13 20.32 7.82C20.65 7.51 21.03 7.35 21.46 7.35C21.87 7.35 22.18 7.45 22.39 7.64C22.59 7.83 22.69 8.18 22.69 8.68L22.69 12.60L24.16 12.60L24.16 8.54C24.16 7.63 23.97 6.98 23.57 6.59C23.17 6.21 22.61 6.02 21.88 6.02C21.00 6.02 20.31 6.40 19.82 7.15ZM25.77 3.92L25.77 6.16L24.72 6.16L24.72 7.49L25.77 7.49L25.77 12.60L27.24 12.60L27.24 7.49L28.29 7.49L28.29 6.16L27.24 6.16L27.24 3.92ZM33.80 8.69L30.24 8.69C30.31 8.26 30.52 7.92 30.88 7.66C31.24 7.41 31.65 7.28 32.12 7.28C33.11 7.28 33.67 7.75 33.80 8.69ZM30.21 9.73L35.34 9.73C35.35 9.61 35.36 9.45 35.36 9.25C35.36 8.25 35.07 7.45 34.48 6.88C33.89 6.31 33.11 6.02 32.12 6.02C31.11 6.02 30.29 6.33 29.66 6.96C29.03 7.59 28.71 8.40 28.71 9.38C28.71 10.38 29.01 11.19 29.62 11.81C30.22 12.43 31.05 12.74 32.12 12.74C33.53 12.74 34.56 12.24 35.21 11.24L34.10 10.56C33.75 11.13 33.09 11.41 32.12 11.41C31.60 11.41 31.17 11.27 30.83 10.98C30.48 10.69 30.28 10.27 30.21 9.73ZM38.16 7.15L38.16 6.16L36.69 6.16L36.69 12.60L38.16 12.60L38.16 8.96C38.16 8.51 38.33 8.13 38.66 7.82C38.99 7.51 39.37 7.35 39.80 7.35C40.21 7.35 40.52 7.45 40.73 7.64C40.93 7.83 41.03 8.18 41.03 8.68L41.03 12.60L42.50 12.60L42.50 8.54C42.50 7.63 42.31 6.98 41.91 6.59C41.51 6.21 40.95 6.02 40.22 6.02C39.34 6.02 38.65 6.40 38.16 7.15ZM44.11 3.92L44.11 6.16L43.06 6.16L43.06 7.49L44.11 7.49L44.11 12.60L45.58 12.60L45.58 7.49L46.63 7.49L46.63 6.16L45.58 6.16L45.58 3.92ZM47.61 2.80L47.61 12.60L49.15 12.60L49.15 8.82L50.62 8.82C51.59 8.82 52.38 8.54 53.01 7.99C53.64 7.43 53.96 6.71 53.96 5.81C53.96 4.91 53.64 4.19 53.01 3.63C52.38 3.08 51.59 2.80 50.62 2.80ZM49.15 4.20L50.62 4.20C51.18 4.20 51.62 4.34 51.94 4.61C52.26 4.89 52.42 5.29 52.42 5.81C52.42 6.33 52.26 6.73 51.94 7.01C51.62 7.28 51.18 7.42 50.62 7.42L49.15 7.42ZM55.30 8.01C55.94 7.54 56.61 7.31 57.29 7.31C58.19 7.31 58.65 7.56 58.65 8.05L58.65 8.90C58.18 8.65 57.62 8.53 56.98 8.53C56.16 8.53 55.47 8.72 54.92 9.11C54.37 9.51 54.10 10.06 54.10 10.78C54.10 11.43 54.32 11.92 54.78 12.25C55.24 12.58 55.79 12.74 56.45 12.74C56.94 12.74 57.38 12.65 57.77 12.46C58.16 12.27 58.45 12.01 58.65 11.68L58.65 12.60L60.12 12.60L60.12 7.98C60.12 7.32 59.86 6.82 59.35 6.50C58.83 6.18 58.15 6.02 57.29 6.02C56.37 6.02 55.53 6.30 54.75 6.87ZM55.51 10.64C55.51 10.36 55.66 10.12 55.97 9.90C56.28 9.70 56.68 9.59 57.18 9.59C57.71 9.59 58.20 9.67 58.65 9.84L58.65 10.08C58.65 10.65 58.50 11.05 58.20 11.27C57.91 11.49 57.47 11.61 56.87 11.61C55.96 11.61 55.51 11.28 55.51 10.64ZM62.86 9.38C62.86 8.77 63.05 8.29 63.44 7.93C63.83 7.57 64.37 7.39 65.06 7.39C65.50 7.39 65.92 7.51 66.32 7.73C66.73 7.96 67.01 8.24 67.16 8.55L67.16 6.71C66.71 6.25 65.96 6.02 64.92 6.02C63.84 6.02 62.99 6.33 62.34 6.96C61.70 7.58 61.38 8.39 61.38 9.38C61.38 10.37 61.70 11.18 62.34 11.80C62.99 12.43 63.84 12.74 64.92 12.74C65.98 12.74 66.73 12.51 67.16 12.05L67.16 10.21C67.00 10.54 66.73 10.82 66.36 11.04C65.99 11.26 65.55 11.37 65.06 11.37C64.37 11.37 63.83 11.19 63.44 10.83C63.05 10.47 62.86 9.99 62.86 9.38ZM68.91 3.92L68.91 6.16L67.86 6.16L67.86 7.49L68.91 7.49L68.91 12.60L70.38 12.60L70.38 7.49L71.43 7.49L71.43 6.16L70.38 6.16L70.38 3.92Z"></path></g></svg>